<svg xmlns="http://www.w3.org/2000/svg" viewBox="0 0 1200 500" width="1200" height="500">
  <defs>
    <linearGradient id="bg" x1="0%" y1="0%" x2="100%" y2="100%">
      <stop offset="0%" style="stop-color:#0f172a"/>
      <stop offset="100%" style="stop-color:#1e293b"/>
    </linearGradient>
  </defs>

  <!-- Background -->
  <rect width="1200" height="500" fill="url(#bg)" rx="12"/>

  <!-- Title -->
  <text x="60" y="50" font-family="system-ui" font-size="16" font-weight="700" fill="#e2e8f0">Event Timeline: Iran-Israel Conflict 2024</text>

  <!-- Timeline axis -->
  <line x1="100" y1="300" x2="1100" y2="300" stroke="#475569" stroke-width="2"/>

  <!-- Time markers -->
  <text x="150" y="330" font-family="system-ui" font-size="11" fill="#64748b" text-anchor="middle">2024-01</text>
  <text x="350" y="330" font-family="system-ui" font-size="11" fill="#64748b" text-anchor="middle">2024-03</text>
  <text x="550" y="330" font-family="system-ui" font-size="11" fill="#64748b" text-anchor="middle">2024-04</text>
  <text x="750" y="330" font-family="system-ui" font-size="11" fill="#64748b" text-anchor="middle">2024-07</text>
  <text x="950" y="330" font-family="system-ui" font-size="11" fill="#64748b" text-anchor="middle">2024-10</text>

  <!-- Tick marks -->
  <line x1="150" y1="295" x2="150" y2="305" stroke="#475569" stroke-width="2"/>
  <line x1="350" y1="295" x2="350" y2="305" stroke="#475569" stroke-width="2"/>
  <line x1="550" y1="295" x2="550" y2="305" stroke="#475569" stroke-width="2"/>
  <line x1="750" y1="295" x2="750" y2="305" stroke="#475569" stroke-width="2"/>
  <line x1="950" y1="295" x2="950" y2="305" stroke="#475569" stroke-width="2"/>

  <!-- Event nodes -->
  <!-- Event 1 -->
  <line x1="200" y1="200" x2="200" y2="295" stroke="#3b82f6" stroke-width="1" stroke-dasharray="4"/>
  <circle cx="200" cy="200" r="14" fill="#3b82f6"/>
  <text x="200" y="180" text-anchor="middle" font-family="system-ui" font-size="10" fill="#93c5fd">加沙冲突升级</text>

  <!-- Event 2 -->
  <line x1="420" y1="150" x2="420" y2="295" stroke="#ef4444" stroke-width="1" stroke-dasharray="4"/>
  <circle cx="420" cy="150" r="16" fill="#ef4444"/>
  <text x="420" y="128" text-anchor="middle" font-family="system-ui" font-size="10" fill="#fca5a5">大使馆空袭</text>

  <!-- Causal arrow -->
  <path d="M 434 155 Q 480 130 530 165" fill="none" stroke="#f59e0b" stroke-width="2" marker-end="url(#arrow)"/>
  <defs><marker id="arrow" markerWidth="8" markerHeight="8" refX="6" refY="3" orient="auto"><path d="M0,0 L0,6 L8,3 z" fill="#f59e0b"/></marker></defs>

  <!-- Event 3 -->
  <line x1="550" y1="160" x2="550" y2="295" stroke="#f59e0b" stroke-width="1" stroke-dasharray="4"/>
  <circle cx="550" cy="160" r="18" fill="#f59e0b"/>
  <text x="550" y="135" text-anchor="middle" font-family="system-ui" font-size="10" fill="#fde68a">伊朗报复性打击</text>
  <text x="550" y="148" text-anchor="middle" font-family="system-ui" font-size="9" fill="#fde68a">300+ 导弹</text>

  <!-- Event 4 -->
  <line x1="700" y1="210" x2="700" y2="295" stroke="#10b981" stroke-width="1" stroke-dasharray="4"/>
  <circle cx="700" cy="210" r="12" fill="#10b981"/>
  <text x="700" y="190" text-anchor="middle" font-family="system-ui" font-size="10" fill="#6ee7b7">安理会决议</text>

  <!-- Event 5 -->
  <line x1="900" y1="170" x2="900" y2="295" stroke="#8b5cf6" stroke-width="1" stroke-dasharray="4"/>
  <circle cx="900" cy="170" r="15" fill="#8b5cf6"/>
  <text x="900" y="148" text-anchor="middle" font-family="system-ui" font-size="10" fill="#c4b5fd">黎巴嫩冲突</text>

  <!-- Legend -->
  <rect x="60" y="380" width="300" height="90" fill="#1e293b" rx="8"/>
  <circle cx="85" cy="405" r="6" fill="#3b82f6"/>
  <text x="100" y="409" font-family="system-ui" font-size="11" fill="#94a3b8">Political Event</text>
  <circle cx="85" cy="430" r="6" fill="#ef4444"/>
  <text x="100" y="434" font-family="system-ui" font-size="11" fill="#94a3b8">Military Action</text>
  <circle cx="200" cy="405" r="6" fill="#f59e0b"/>
  <text x="215" y="409" font-family="system-ui" font-size="11" fill="#94a3b8">Retaliation</text>
  <circle cx="200" cy="430" r="6" fill="#10b981"/>
  <text x="215" y="434" font-family="system-ui" font-size="11" fill="#94a3b8">Diplomatic</text>
  <text x="85" y="460" font-family="system-ui" font-size="10" fill="#64748b">Node size = impact score | Arrow = causal link</text>

  <!-- Source badges -->
  <rect x="800" y="380" width="340" height="90" fill="#1e293b" rx="8"/>
  <text x="820" y="405" font-family="system-ui" font-size="11" font-weight="600" fill="#e2e8f0">Sources</text>
  <rect x="820" y="415" width="60" height="20" rx="4" fill="#166534"/>
  <text x="850" y="429" text-anchor="middle" font-family="system-ui" font-size="9" fill="#86efac">Reuters</text>
  <rect x="890" y="415" width="50" height="20" rx="4" fill="#1e3a5f"/>
  <text x="915" y="429" text-anchor="middle" font-family="system-ui" font-size="9" fill="#93c5fd">AP</text>
  <rect x="950" y="415" width="60" height="20" rx="4" fill="#4c1d95"/>
  <text x="980" y="429" text-anchor="middle" font-family="system-ui" font-size="9" fill="#c4b5fd">新华社</text>
  <rect x="1020" y="415" width="70" height="20" rx="4" fill="#7c2d12"/>
  <text x="1055" y="429" text-anchor="middle" font-family="system-ui" font-size="9" fill="#fdba74">抖音媒体</text>
  <text x="820" y="455" font-family="system-ui" font-size="10" fill="#64748b">5 sources verified | Confidence: 0.92</text>
</svg>
